<svg xmlns="http://www.w3.org/2000/svg" viewBox="0 0 300 400">
  <path fill="currentColor" d="M8.6 145.6 L8.8 145.2 L9.1 144.8 L9.4 144.4 L9.7 143.9 L10 143.4 L10.3 142.9 L10.7 142.3 L11 141.8 L11.3 141.2 L11.6 140.6 L12.3 139.4 L13 138.2 L13.6 137 L13.9 136.3 L14.3 135.8 L14.6 135.2 L14.8 134.6 L15.1 134.1 L15.4 133.5 L15.7 133 L15.9 132.5 L16.1 132.1 L16.4 131.7 L16.6 131.3 L16.7 130.9 L16.9 130.6 L17 130.4 L17.1 130.1 L17.2 130.1 L17.2 130 C17.3 129.8 17.4 129.7 17.5 129.6 C18.2 128.8 21 126 22 124.5 C23.1 122.9 22.3 121 22.7 118.5 C23.1 116.1 24.9 115.9 26.9 113.9 C28.9 111.8 29.5 111.8 31.1 110.2 C32.8 108.5 31.3 107.6 32.5 105.4 C33.7 103.2 35 102.5 35.8 101.4 C36.6 100.3 35.8 101.4 39.1 97.1 C42.4 92.7 39.5 95.4 39.8 93.8 C40 92.1 40.5 91.6 42.7 89.8 C44.8 88 48.3 86 50 81 C51.8 76.1 81.9 43.3 94.1 34.4 C105.6 26 122.2 36.4 124 37.6 C124.1 37.7 124.3 37.7 124.4 37.7 L127.9 38.9 C128.2 39 128.6 39 128.9 38.9 L131.4 38 C132 37.8 132.6 37.9 133.1 38.4 C133.8 39.2 135 40.3 135.3 40.4 C135.6 40.5 145.6 30.5 147.2 28.9 C147.4 28.7 147.5 28.5 147.6 28.4 L148.4 26.1 C148.5 25.9 148.6 25.7 148.7 25.6 C150.8 23.4 166.9 8 182.3 23.2 C196.9 37.6 191 54.6 189.4 58.4 C189.2 58.9 189.2 59.4 189.5 59.9 C191.7 63 200 75.5 195.6 77.6 C191.6 79.6 181.7 71.1 178.2 67.8 C177.4 67.1 176.3 67.3 175.8 68.1 C175.2 69 174.5 70.2 174.4 70.5 C174.2 71.2 173.7 73.2 173.7 74.2 C173.7 75.2 173.1 77.4 170.7 77.8 C168.2 78.2 168.1 74.9 166.9 74.9 C165.6 74.9 165.3 76.3 164.1 77.6 C162.9 79 162.6 78 160.2 77.6 C157.7 77.2 159.5 79.7 154.4 81.3 C150.3 82.6 147.9 77.8 147.1 75.9 C146.9 75.4 146.5 75.1 146 75 L143.7 74.5 C142.8 74.4 142 74.9 141.9 75.8 L141.5 78.3 C141.4 78.6 141.5 78.9 141.6 79.1 C142 80.1 143.1 82.9 143.5 83.6 C143.9 84.6 141.1 86.9 142.1 90.4 C143 93.8 139.1 105.4 133.5 111.8 C127.9 118.3 131.3 122.2 132 125.6 C132.7 129.1 130.3 134.8 129.6 137.4 C129 140 128.8 153.6 129.6 159 C130.5 164.5 132.7 180.6 133.2 183.5 C133.7 186.4 134 185.6 137.9 187.5 C141.7 189.4 140.6 191.2 140.3 193.8 C140 196.4 138.4 194.9 137.7 196.5 C137 198.2 137 200.5 137.7 202.2 C138.4 204 140.4 205.3 143.5 208.7 C146.5 212.1 147.2 213.2 149.2 215.9 C151.3 218.7 149.5 219.9 149.6 223.5 C149.8 227 150.7 226.3 153.2 230.3 C154.3 232.1 154.1 233 153.5 233.5 C152.8 234.1 152.7 235.1 153.3 235.8 L157.3 240.1 C157.5 240.4 157.7 240.8 157.7 241.2 L157.7 243.4 C157.7 243.8 157.8 244.1 158 244.4 L260.9 369.6 C261.5 370.4 262.9 370.3 263.4 369.4 C264.3 367.9 265.5 365.5 267 361.9 C269.7 355.1 281 349.5 287.3 357.5 C293.6 365.6 282.6 372.9 273.6 375.7 C265.7 378 261.8 375.9 260.9 375.3 C260.8 375.2 260.6 375.1 260.5 375 L156 246.4 C155.8 246.2 155.6 246 155.3 245.9 L152.6 244.9 C152.3 244.8 152.1 244.5 151.9 244.2 L148.4 238.6 C148.1 238.2 147.7 237.9 147.2 237.9 C145.9 237.8 143.1 237.4 142 236.5 C140.4 235.2 137.5 232.5 135.5 232.2 C133.6 231.9 131.4 231.5 128.8 227.6 C126.2 223.6 126.9 225.1 127.1 222.6 C127.2 220.2 119.8 214.6 118.6 212.5 C117.3 210.5 117.2 208.3 117.6 205.1 C118 202 117.2 202.4 116.1 199.9 C115 197.5 110.8 193.4 110.9 192 C111 190.6 113.4 188.8 113.1 186.1 C112.8 183.4 107.3 167.8 106.5 162.6 C105.7 157.4 106.1 144.3 106.1 144.3 C106.1 144.3 105 144.9 103 146.8 C100.9 148.8 99.7 151 97.8 154.8 C95.9 158.6 94.9 158.6 88.7 161.6 C82.6 164.6 79.9 169.7 80.8 174.2 C81.8 178.7 76.7 179.1 77 181.7 C77.2 184.3 79.3 189.2 80.4 193.2 C81.5 197.2 83 198 85.3 202.7 C87.6 207.3 87.4 214 87.9 220.2 C88.5 226.3 89.7 237.7 94.8 245.3 C99.8 253 92.2 272.4 91.8 279.5 C91.3 286.7 88.7 295.8 88.9 303.6 C89 311.4 88.9 312.5 88.5 320.9 C88.1 329.2 79 338.6 78.6 342.3 C78.2 346 79.6 343.4 81.9 345.5 C84.2 347.5 84.2 348.4 84.8 351.8 C85.3 355.2 84.9 356.8 85.9 360.5 C86.5 363.2 89.1 364.1 90.4 364.4 C91.2 364.5 91.9 364.7 92.6 365 C94.8 365.8 99.5 367.5 101.2 368 C102.1 368.2 103 368.4 103.9 368.6 C106.5 369.4 109 370.7 111.5 371.7 C112.2 372 113 372.4 113.7 372.8 C114.5 373.1 115.1 373.6 115.4 374.5 C115.6 375.2 115.5 376.1 115.2 376.8 C114.9 377.7 114.4 378.7 113.8 379.4 C113.6 379.7 111.9 381.4 111.5 381 C112 381.6 113.9 382.1 115.3 383 C118 384.7 118.8 385.6 118.3 389.3 C118.1 390.2 117.5 391 116.6 391.6 C110.1 391.6 103.7 391.6 97.3 391.6 C84.9 391.6 72.5 391.6 60.1 391.6 C56.1 391.6 52 391.5 48 391.5 C44.2 391.5 46.1 392 42.4 391.6 C41.7 391.5 41.1 391.3 40.6 390.8 C38.8 388.6 40.8 384.7 40 382.1 C39.7 380.8 40.3 379.7 40.5 377.8 C40.6 375.9 40.7 368.1 40.8 366 C40.9 364 41.1 362.5 41.4 361.1 C41.7 359.7 43.1 357.9 42.6 357 C41.7 355.4 41 357 39.9 356.1 C39.1 355.5 39.5 344 39.5 342.3 C39.5 340.7 41.7 311 41.4 310.1 C41.1 309.1 43.7 285.7 45 279.7 C46.1 274.2 46.4 258.3 46.5 255.5 C46.5 255.2 46.4 254.9 46.3 254.7 C42.9 249 34.6 229.3 34.4 228.8 C34.3 228.2 25.1 204.9 18 192.4 C10.9 179.9 9.3 155.9 9.3 155.9 L8.4 155.8 C7.4 155.7 6.5 154.8 6.5 153.8 C6.4 151.7 6.6 148.3 8.6 145.6 Z"/>
</svg>
